<svg width="62" height="16" viewBox="0 0 62 16" fill="none" xmlns="http://www.w3.org/2000/svg">
<path d="M0.852 12V3.6H4.74C5.292 3.6 5.772 3.708 6.18 3.924C6.588 4.132 6.908 4.424 7.14 4.8C7.372 5.176 7.488 5.612 7.488 6.108C7.488 6.604 7.372 7.04 7.14 7.416C6.908 7.792 6.584 8.088 6.168 8.304C5.76 8.512 5.284 8.616 4.74 8.616H2.112V12H0.852ZM2.112 7.548H4.608C5.104 7.548 5.496 7.42 5.784 7.164C6.08 6.9 6.228 6.552 6.228 6.12C6.228 5.688 6.08 5.344 5.784 5.088C5.496 4.832 5.104 4.704 4.608 4.704H2.112V7.548ZM10.8884 12.12C10.4164 12.12 10.0004 12.02 9.64041 11.82C9.28041 11.62 9.00041 11.34 8.80041 10.98C8.60041 10.612 8.50041 10.192 8.50041 9.72V5.892H9.68841V9.516C9.68841 9.996 9.82441 10.376 10.0964 10.656C10.3764 10.936 10.7484 11.076 11.2124 11.076C11.5404 11.076 11.8324 11.008 12.0884 10.872C12.3444 10.728 12.5524 10.528 12.7124 10.272V5.892H13.9124V12H12.7124V11.376C12.2404 11.872 11.6324 12.12 10.8884 12.12ZM15.333 12V3.6L16.533 3.372V6.468C17.045 6.02 17.665 5.796 18.393 5.796C18.969 5.796 19.489 5.936 19.953 6.216C20.425 6.496 20.797 6.872 21.069 7.344C21.341 7.816 21.477 8.348 21.477 8.94C21.477 9.532 21.337 10.068 21.057 10.548C20.785 11.02 20.413 11.396 19.941 11.676C19.477 11.956 18.953 12.096 18.369 12.096C18.033 12.096 17.705 12.044 17.385 11.94C17.073 11.828 16.785 11.672 16.521 11.472V12H15.333ZM18.237 11.052C18.629 11.052 18.977 10.96 19.281 10.776C19.593 10.592 19.841 10.344 20.025 10.032C20.209 9.712 20.301 9.352 20.301 8.952C20.301 8.552 20.209 8.192 20.025 7.872C19.841 7.552 19.593 7.3 19.281 7.116C18.977 6.932 18.629 6.84 18.237 6.84C17.893 6.84 17.573 6.904 17.277 7.032C16.981 7.16 16.733 7.34 16.533 7.572V10.332C16.733 10.556 16.981 10.732 17.277 10.86C17.581 10.988 17.901 11.052 18.237 11.052ZM22.6221 12V3.6L23.8221 3.372V12H22.6221ZM25.2353 12V5.892H26.4353V12H25.2353ZM25.8353 4.908C25.6353 4.908 25.4633 4.836 25.3193 4.692C25.1753 4.54 25.1033 4.364 25.1033 4.164C25.1033 3.956 25.1753 3.784 25.3193 3.648C25.4633 3.504 25.6353 3.432 25.8353 3.432C26.0433 3.432 26.2193 3.504 26.3633 3.648C26.5073 3.784 26.5793 3.956 26.5793 4.164C26.5793 4.364 26.5073 4.54 26.3633 4.692C26.2193 4.836 26.0433 4.908 25.8353 4.908ZM29.9486 12.12C29.4206 12.12 28.9246 12.044 28.4606 11.892C28.0046 11.732 27.6086 11.508 27.2726 11.22L27.9326 10.428C28.2446 10.676 28.5646 10.868 28.8926 11.004C29.2286 11.132 29.5686 11.196 29.9126 11.196C30.3446 11.196 30.6966 11.112 30.9686 10.944C31.2406 10.776 31.3766 10.556 31.3766 10.284C31.3766 10.06 31.2966 9.884 31.1366 9.756C30.9766 9.628 30.7286 9.54 30.3926 9.492L29.2886 9.336C28.6806 9.248 28.2246 9.06 27.9206 8.772C27.6166 8.484 27.4646 8.1 27.4646 7.62C27.4646 7.252 27.5646 6.932 27.7646 6.66C27.9646 6.38 28.2446 6.164 28.6046 6.012C28.9646 5.852 29.3846 5.772 29.8646 5.772C30.3046 5.772 30.7286 5.836 31.1366 5.964C31.5446 6.092 31.9366 6.292 32.3126 6.564L31.7006 7.356C31.3646 7.132 31.0366 6.968 30.7166 6.864C30.4046 6.76 30.0886 6.708 29.7686 6.708C29.4006 6.708 29.1046 6.788 28.8806 6.948C28.6566 7.1 28.5446 7.3 28.5446 7.548C28.5446 7.772 28.6206 7.948 28.7726 8.076C28.9326 8.196 29.1926 8.28 29.5526 8.328L30.6566 8.484C31.2646 8.572 31.7246 8.76 32.0366 9.048C32.3486 9.328 32.5046 9.708 32.5046 10.188C32.5046 10.556 32.3926 10.888 32.1686 11.184C31.9446 11.472 31.6406 11.7 31.2566 11.868C30.8726 12.036 30.4366 12.12 29.9486 12.12ZM33.4268 12V3.6L34.6268 3.336V6.516C35.0988 6.02 35.7108 5.772 36.4628 5.772C36.9348 5.772 37.3468 5.872 37.6988 6.072C38.0588 6.272 38.3388 6.552 38.5388 6.912C38.7468 7.272 38.8508 7.688 38.8508 8.16V12H37.6508V8.364C37.6508 7.884 37.5148 7.508 37.2428 7.236C36.9708 6.956 36.5988 6.816 36.1268 6.816C35.8068 6.816 35.5188 6.884 35.2628 7.02C35.0068 7.156 34.7948 7.352 34.6268 7.608V12H33.4268Z" fill="#6C757D"/>
<path d="M54 0C52.4178 0 50.871 0.469192 49.5554 1.34824C48.2398 2.22729 47.2145 3.47672 46.609 4.93853C46.0035 6.40034 45.845 8.00887 46.1537 9.56072C46.4624 11.1126 47.2243 12.538 48.3431 13.6569C49.462 14.7757 50.8874 15.5376 52.4393 15.8463C53.9911 16.155 55.5997 15.9965 57.0615 15.391C58.5233 14.7855 59.7727 13.7602 60.6518 12.4446C61.5308 11.129 62 9.58225 62 8C61.9977 5.87897 61.1541 3.84547 59.6543 2.34568C58.1545 0.845885 56.121 0.00229405 54 0V0ZM54.3333 13.9833V13.1267C54.3333 12.3858 54.039 11.6753 53.5152 11.1515C52.9913 10.6276 52.2808 10.3333 51.54 10.3333H51.5333C51.2581 10.3333 50.9855 10.2791 50.7313 10.1738C50.477 10.0684 50.2459 9.914 50.0513 9.71933L48.016 7.68267C48.0704 6.62356 48.4049 5.59788 48.9855 4.71043C49.5661 3.82298 50.3719 3.10557 51.3205 2.63152C52.2692 2.15747 53.3267 1.94377 54.385 2.01226C55.4432 2.08075 56.4644 2.42896 57.344 3.02133C57.1675 3.15088 56.9543 3.22093 56.7353 3.22133H55.7793C55.643 3.22133 55.5081 3.24821 55.3822 3.30044C55.2563 3.35266 55.1419 3.4292 55.0456 3.52567C54.9493 3.62215 54.873 3.73666 54.821 3.86267C54.769 3.98868 54.7424 4.12369 54.7427 4.26V4.95467C54.7427 5.22961 54.6334 5.49329 54.439 5.6877C54.2446 5.88211 53.9809 5.99133 53.706 5.99133C53.5696 5.99098 53.4346 6.01754 53.3085 6.06948C53.1824 6.12142 53.0678 6.19772 52.9712 6.29402C52.8747 6.39032 52.7981 6.50472 52.7458 6.63067C52.6936 6.75662 52.6667 6.89164 52.6667 7.028V7.72267C52.6667 7.99761 52.7759 8.26129 52.9703 8.4557C53.1647 8.65011 53.4284 8.75933 53.7033 8.75933H56.474C56.7489 8.75933 57.0126 8.86855 57.207 9.06296C57.4014 9.25738 57.5107 9.52106 57.5107 9.796V10.8093C57.5107 10.9455 57.5375 11.0804 57.5897 11.2063C57.6419 11.3321 57.7183 11.4464 57.8147 11.5427L58.37 12.098C57.3178 13.2233 55.8716 13.8987 54.3333 13.9833Z" fill="#6C757D"/>
</svg>
